<?xml version="1.0" standalone="no"?>
<!DOCTYPE svg PUBLIC "-//W3C//DTD SVG 20010904//EN"
 "http://www.w3.org/TR/2001/REC-SVG-20010904/DTD/svg10.dtd">
<svg version="1.0" xmlns="http://www.w3.org/2000/svg"
 width="300.000000pt" height="165.000000pt" viewBox="0 0 300.000000 165.000000"
 preserveAspectRatio="xMidYMid meet">
<metadata>
Created by potrace 1.10, written by Peter Selinger 2001-2011
</metadata>
<g transform="translate(0.000000,165.000000) scale(0.100000,-0.100000)"
fill="#000000" stroke="none">
<path d="M2149 1631 c-186 -93 -251 -168 -265 -309 l-7 -60 -336 -223 c-423
-282 -530 -362 -713 -539 -82 -78 -148 -139 -148 -135 0 3 34 113 75 243 91
285 112 363 124 469 22 201 -39 440 -127 498 -139 92 -436 -21 -665 -253 -87
-87 -88 -89 -70 -110 l18 -21 62 28 c35 17 69 41 79 57 28 42 162 152 213 175
25 11 79 25 119 31 62 10 77 9 107 -5 68 -32 117 -181 118 -357 0 -122 -8
-160 -110 -490 -84 -274 -148 -452 -197 -548 -36 -70 -23 -97 36 -73 13 5 35
12 51 16 18 3 36 20 55 50 75 121 460 504 650 647 51 38 224 157 385 265 276
184 292 193 299 171 3 -13 29 -97 57 -188 60 -197 111 -387 111 -415 0 -14
-21 -31 -72 -60 -89 -50 -162 -120 -191 -182 -18 -39 -22 -66 -22 -143 0 -147
31 -176 150 -145 121 32 211 109 272 233 36 72 38 81 38 169 l-1 93 156 51
c330 110 514 180 557 212 48 36 47 35 28 61 -13 18 -23 15 -242 -61 -292 -103
-513 -176 -518 -172 -1 2 -19 65 -38 139 -20 74 -58 207 -85 295 -74 239 -73
223 -5 272 139 97 203 178 203 254 0 40 -7 52 -37 68 -31 16 -72 13 -114 -8z
m-10 -133 c-9 -33 -91 -126 -97 -109 -10 29 60 141 88 141 16 0 17 -4 9 -32z
m-43 -1084 c10 -66 -11 -142 -55 -212 -28 -42 -46 -61 -66 -64 -34 -7 -40 7
-40 92 1 46 7 77 22 105 21 41 104 125 122 125 5 0 13 -21 17 -46z"/>
</g>
</svg>
